<?xml version="1.0" encoding="UTF-8"?>
<svg width="1280" height="1024" version="1.1" viewBox="0 0 338.67 270.93" xmlns="http://www.w3.org/2000/svg" xmlns:cc="http://creativecommons.org/ns#" xmlns:dc="http://purl.org/dc/elements/1.1/" xmlns:rdf="http://www.w3.org/1999/02/22-rdf-syntax-ns#">
 <metadata>
  <rdf:RDF>
   <cc:Work rdf:about="">
    <dc:format>image/svg+xml</dc:format>
    <dc:type rdf:resource="http://purl.org/dc/dcmitype/StillImage"/>
    <dc:title/>
   </cc:Work>
  </rdf:RDF>
 </metadata>
 <defs>
  <filter id="filter948-7-2" color-interpolation-filters="sRGB">
   <feFlood flood-color="rgb(0,0,0)" flood-opacity=".49804" result="flood"/>
   <feComposite in="flood" in2="SourceGraphic" operator="in" result="composite1"/>
   <feGaussianBlur in="composite1" result="blur" stdDeviation="3"/>
   <feOffset dx="6" dy="6" result="offset"/>
   <feComposite in="SourceGraphic" in2="offset" result="composite2"/>
  </filter>
  <clipPath id="clipPath4698-3">
   <path d="m9.6384 293.54c1.8728-1.8728 1.8728-4.9091 2.9e-6 -6.7819-1.8728-1.8728-4.9091-1.8728-6.7819 0s-1.8728 4.9091 3.4e-6 6.7819c1.8728 1.8728 4.9091 1.8728 6.7819 1e-5z" fill="#500" stroke-width=".0052953"/>
  </clipPath>
  <clipPath id="clipPath4702-6">
   <path d="m-9.6384-293.54c-1.8728 1.8728-1.8728 4.9091-2.9e-6 6.7819 1.8728 1.8728 4.9091 1.8728 6.7819 0s1.8728-4.9091-3.4e-6 -6.7819c-1.8728-1.8728-4.9091-1.8728-6.7819-1e-5z" fill="#500" stroke-width=".0052953"/>
  </clipPath>
 </defs>
 <path d="m0-3e-6h338.67v270.93h-338.67z" fill="#241c1c" stroke-width=".6322"/>
 <g transform="matrix(.99961 0 0 1 -.018191 -.0034112)" stroke-width="1.0008">
  <g transform="matrix(.6704 0 0 .94658 -.066986 .44893)" fill="#483737">
   <path d="m0.099918 285.75 95.25-92.929h150.96l0.0681-0.0383-0.0388 0.0383h0.13219l-5.5978 0.17134-89.958 92.758z" filter="url(#filter948-7-2)"/>
   <path d="m-52.723-0.47421 0.03873 0.038138h-0.13218l0.30617 0.17135 196.2 193.22h148.93l0.0681 0.0383-0.0388-0.0383h0.13218l-0.30605-0.17134-196.2-193.22h-148.93z" filter="url(#filter948-7-2)"/>
  </g>
  <path transform="matrix(.64755 0 0 .94658 4.9516 .44893)" d="m389.2 285.75 95.25-92.917h150.96l0.0681-0.0383-0.0388 0.0383h0.13219l-5.5978 0.17132-89.958 92.745z" fill="#483737" filter="url(#filter948-7-2)"/>
  <path transform="matrix(.64755 0 0 .94658 4.9516 .44893)" d="m246.06 285.75 95.25-92.917h150.96l0.0681-0.0383-0.0388 0.0383h0.13219l-5.5978 0.17132-89.958 92.745z" fill="#500" filter="url(#filter948-7-2)"/>
  <path transform="matrix(.64755 0 0 .94658 4.9516 .44893)" d="m219.83-0.4741 0.0387 0.038128h-0.26423l0.43822 0.17133 195.35 193.26 149.78-0.0764 0.0681 0.0383-0.0388-0.0383h0.13218l-1.7714 0.0764-195.79-193.44h-147.87z" fill="#500" filter="url(#filter948-7-2)"/>
  <path transform="matrix(.64755 0 0 .94658 4.9516 .44893)" d="m329.01-0.47421 0.0387 0.038128h-0.26423l0.43822 0.17133 195.35 193.26 149.78-0.0764 0.0681 0.0383-0.0388-0.0383h0.13218l-1.7714 0.0764-195.79-193.44h-147.87z" fill="#3f3131" filter="url(#filter948-7-2)"/>
 </g>
 <g transform="matrix(1 0 0 1 12.171 -38.239)">
  <path d="m10.092 294.39c2.0665-2.0666 2.0665-5.417 4e-6 -7.4835-2.0665-2.0666-5.417-2.0666-7.4835 0-2.0665 2.0665-2.0665 5.417 4e-6 7.4835 2.0665 2.0666 5.417 2.0666 7.4835 1e-5z" fill="#500" stroke-width=".0058431"/>
  <g transform="matrix(.8 0 0 .8 1.27 58.13)" stroke-width=".35389">
   <rect transform="rotate(180 .051288 .24939)" x="-6.3" y="-292.69" width="4.4458" height="9.8127" ry="2.2229" clip-path="url(#clipPath4702-6)" fill="#a7a7a7"/>
   <rect transform="translate(.10258 .49878)" x="6.1949" y="287.61" width="4.4458" height="9.8127" ry="2.2229" clip-path="url(#clipPath4698-3)" fill="#464646"/>
  </g>
 </g>
</svg>
