<?xml version="1.0" encoding="UTF-8"?>
<svg width="2560" height="1440" version="1.1" viewBox="0 0 677.33 381" xmlns="http://www.w3.org/2000/svg" xmlns:cc="http://creativecommons.org/ns#" xmlns:dc="http://purl.org/dc/elements/1.1/" xmlns:rdf="http://www.w3.org/1999/02/22-rdf-syntax-ns#">
 <metadata>
  <rdf:RDF>
   <cc:Work rdf:about="">
    <dc:format>image/svg+xml</dc:format>
    <dc:type rdf:resource="http://purl.org/dc/dcmitype/StillImage"/>
    <dc:title/>
   </cc:Work>
  </rdf:RDF>
 </metadata>
 <defs>
  <filter id="filter948-7-2" color-interpolation-filters="sRGB">
   <feFlood flood-color="rgb(0,0,0)" flood-opacity=".49804" result="flood"/>
   <feComposite in="flood" in2="SourceGraphic" operator="in" result="composite1"/>
   <feGaussianBlur in="composite1" result="blur" stdDeviation="3"/>
   <feOffset dx="6" dy="6" result="offset"/>
   <feComposite in="SourceGraphic" in2="offset" result="composite2"/>
  </filter>
  <clipPath id="clipPath4698-3">
   <path d="m9.6384 293.54c1.8728-1.8728 1.8728-4.9091 2.9e-6 -6.7819-1.8728-1.8728-4.9091-1.8728-6.7819 0s-1.8728 4.9091 3.4e-6 6.7819c1.8728 1.8728 4.9091 1.8728 6.7819 1e-5z" fill="#500" stroke-width=".0052953"/>
  </clipPath>
  <clipPath id="clipPath4702-6">
   <path d="m-9.6384-293.54c-1.8728 1.8728-1.8728 4.9091-2.9e-6 6.7819 1.8728 1.8728 4.9091 1.8728 6.7819 0s1.8728-4.9091-3.4e-6 -6.7819c-1.8728-1.8728-4.9091-1.8728-6.7819-1e-5z" fill="#500" stroke-width=".0052953"/>
  </clipPath>
 </defs>
 <path d="m0 9.375e-7h677.33v381h-677.33z" fill="#241c1c" stroke-width="1.0602"/>
 <g transform="translate(-13.758)" fill="#483737" stroke-width="1.2972">
  <path d="m13.87 381 120.22-123.68h190.53l0.0859-0.0509-0.049 0.0509h0.16684l-7.0651 0.22805-113.54 123.46z" filter="url(#filter948-7-2)"/>
  <path d="m-52.799 0.050974 0.04888 0.050753h-0.16682l0.38642 0.22806 247.63 257.17h187.97l0.0859 0.0509-0.049-0.0509h0.16682l-0.38618-0.22805-247.63-257.17h-187.97z" filter="url(#filter948-7-2)"/>
  <path d="m505.09 381 120.22-123.68h190.53l0.0859-0.0509-0.049 0.0509h0.16683l-7.0651 0.22805-113.54 123.46z" filter="url(#filter948-7-2)"/>
 </g>
 <g stroke-width="1.2972">
  <path d="m324.43 381 120.22-123.68h190.53l0.0859-0.0509-0.049 0.0509h0.16684l-7.0651 0.22805-113.54 123.46z" fill="#500" filter="url(#filter948-7-2)"/>
  <path d="m291.32 2.0492e-4 0.0488 0.050753h-0.33349l0.55309 0.22806 246.56 257.26 189.04-0.10172 0.0859 0.0509-0.049-0.0509h0.16684l-2.2357 0.10172-247.11-257.5h-186.63z" fill="#500" filter="url(#filter948-7-2)"/>
  <path d="m429.12 6.0938e-5 0.0488 0.050753h-0.33349l0.55308 0.22806 246.56 257.26 189.04-0.10172 0.0859 0.0509-0.049-0.0509h0.16682l-2.2357 0.10172-247.11-257.5h-186.63z" fill="#3f3131" filter="url(#filter948-7-2)"/>
 </g>
 <g transform="translate(12.169 71.831)">
  <path d="m10.092 294.39c2.0665-2.0666 2.0665-5.417 4e-6 -7.4835-2.0665-2.0666-5.417-2.0666-7.4835 0-2.0665 2.0665-2.0665 5.417 4e-6 7.4835 2.0665 2.0666 5.417 2.0666 7.4835 1e-5z" fill="#500" stroke-width=".0058431"/>
  <g transform="matrix(.8 0 0 .8 1.27 58.13)" stroke-width=".35389">
   <rect transform="rotate(180 .051288 .24939)" x="-6.3" y="-292.69" width="4.4458" height="9.8127" ry="2.2229" clip-path="url(#clipPath4702-6)" fill="#a7a7a7"/>
   <rect transform="translate(.10258 .49878)" x="6.1949" y="287.61" width="4.4458" height="9.8127" ry="2.2229" clip-path="url(#clipPath4698-3)" fill="#464646"/>
  </g>
 </g>
</svg>
