<?xml version="1.0" encoding="UTF-8"?>
<svg width="3840" height="2160" version="1.1" viewBox="0 0 1016 571.5" xmlns="http://www.w3.org/2000/svg" xmlns:cc="http://creativecommons.org/ns#" xmlns:dc="http://purl.org/dc/elements/1.1/" xmlns:rdf="http://www.w3.org/1999/02/22-rdf-syntax-ns#">
 <metadata>
  <rdf:RDF>
   <cc:Work rdf:about="">
    <dc:format>image/svg+xml</dc:format>
    <dc:type rdf:resource="http://purl.org/dc/dcmitype/StillImage"/>
    <dc:title/>
   </cc:Work>
  </rdf:RDF>
 </metadata>
 <defs>
  <filter id="filter948-7-2" color-interpolation-filters="sRGB">
   <feFlood flood-color="rgb(0,0,0)" flood-opacity=".49804" result="flood"/>
   <feComposite in="flood" in2="SourceGraphic" operator="in" result="composite1"/>
   <feGaussianBlur in="composite1" result="blur" stdDeviation="3"/>
   <feOffset dx="6" dy="6" result="offset"/>
   <feComposite in="SourceGraphic" in2="offset" result="composite2"/>
  </filter>
  <clipPath id="clipPath4698">
   <path d="m9.6384 293.54c1.8728-1.8728 1.8728-4.9091 2.9e-6 -6.7819-1.8728-1.8728-4.9091-1.8728-6.7819 0s-1.8728 4.9091 3.4e-6 6.7819c1.8728 1.8728 4.9091 1.8728 6.7819 1e-5z" fill="#500" stroke-width=".0052953"/>
  </clipPath>
  <clipPath id="clipPath4702">
   <path d="m-9.6384-293.54c-1.8728 1.8728-1.8728 4.9091-2.9e-6 6.7819 1.8728 1.8728 4.9091 1.8728 6.7819 0s1.8728-4.9091-3.4e-6 -6.7819c-1.8728-1.8728-4.9091-1.8728-6.7819-1e-5z" fill="#500" stroke-width=".0052953"/>
  </clipPath>
 </defs>
 <path d="m0 0h1016v571.5h-1016z" fill="#241c1c" stroke-width="1.5903"/>
 <g transform="translate(-48.683)" fill="#483737" stroke-width="1.9634">
  <path d="m49.092 571.5 183.62-185.53h291.01l0.13127-0.0763-0.0747 0.0763h0.25482l-10.791 0.34208-173.42 185.18z" filter="url(#filter948-7-2)"/>
  <path d="m-52.736 0.07645 0.07466 0.07619h-0.25481l0.59021 0.34209 378.22 385.75h287.1l0.13128 0.0763-0.0747-0.0763h0.25481l-0.59008-0.34208-378.22-385.75h-287.1z" filter="url(#filter948-7-2)"/>
  <path d="m799.37 571.5 183.62-185.53h291.01l0.1313-0.0763-0.074 0.0763h0.2548l-10.791 0.34208-173.42 185.18z" filter="url(#filter948-7-2)"/>
 </g>
 <g stroke-width="1.9634">
  <path d="m523.43 571.5 183.62-185.53h291.01l0.13136-0.0763-0.0756 0.0763h0.25485l-10.791 0.34208-173.42 185.18z" fill="#500" filter="url(#filter948-7-2)"/>
  <path d="m472.87 2.7997e-4 0.0747 0.07619h-0.50936l0.84475 0.34209 376.58 385.89 288.74-0.15258 0.1313 0.0763-0.075-0.0763h0.2548l-3.4149 0.15258-377.43-386.25h-285.05z" fill="#500" filter="url(#filter948-7-2)"/>
  <path d="m683.34 6e-5 0.0747 0.07619h-0.50937l0.84478 0.34209 376.58 385.89 288.74-0.15258 0.1313 0.0763-0.075-0.0763h0.2548l-3.4149 0.15258-377.43-386.25h-285.05z" fill="#3f3131" filter="url(#filter948-7-2)"/>
 </g>
 <g transform="translate(12.171 262.33)">
  <path d="m10.092 294.39c2.0665-2.0666 2.0665-5.417 4e-6 -7.4835-2.0665-2.0666-5.417-2.0666-7.4835 0-2.0665 2.0665-2.0665 5.417 4e-6 7.4835 2.0665 2.0666 5.417 2.0666 7.4835 1e-5z" fill="#500" stroke-width=".0058431"/>
  <g transform="matrix(.8 0 0 .8 1.27 58.13)" stroke-width=".35389">
   <rect transform="rotate(180 .051288 .24939)" x="-6.3" y="-292.69" width="4.4458" height="9.8127" ry="2.2229" clip-path="url(#clipPath4702)" fill="#a7a7a7"/>
   <rect transform="translate(.10258 .49878)" x="6.1949" y="287.61" width="4.4458" height="9.8127" ry="2.2229" clip-path="url(#clipPath4698)" fill="#464646"/>
  </g>
 </g>
</svg>
