<svg xmlns="http://www.w3.org/2000/svg" width="1920" height="1080" viewBox="0 0 508 285.75"><defs><clipPath clipPathUnits="userSpaceOnUse" id="e"><path transform="scale(1 -1) rotate(-45)" stroke-width=".313" d="M188.015 202.383h223.074v95.239H188.015z"/></clipPath><clipPath clipPathUnits="userSpaceOnUse" id="c"><path transform="scale(1 -1) rotate(-45)" stroke-width=".527" d="M-.366-205.938h309.679v194.714H-.366z"/></clipPath><clipPath clipPathUnits="userSpaceOnUse" id="b"><path transform="rotate(45)" stroke-width=".378" d="M185.815 10.487h441.734v191.896H185.815z"/></clipPath><clipPath clipPathUnits="userSpaceOnUse" id="a"><path transform="rotate(45)" stroke-width=".352" d="M246.451 10.631h261.66v191.751h-261.66z"/></clipPath><clipPath clipPathUnits="userSpaceOnUse" id="d"><path transform="rotate(-45)" stroke-width=".078" d="M411.089 202.383h97.448v95.425h-97.448z"/></clipPath><clipPath clipPathUnits="userSpaceOnUse" id="f"><path transform="scale(1 -1) rotate(-45)" stroke-width=".328" d="M66.879-205.938h242.433v96.656H66.879z"/></clipPath></defs><g transform="translate(0 -11.25)"><path d="M-40.821-11.429h665.994v344.714H-40.821z"/><rect width="74.839" height="272.899" x="224.033" y="238.734" ry="0" transform="rotate(-45)" clip-path="url(#a)" fill="#483737"/><rect ry="0" y="160.904" x="149.835" height="348.058" width="74.839" transform="rotate(-45)" clip-path="url(#b)" fill="#500"/><rect ry="0" y="-79.691" x="-69.352" height="508" width="104.479" transform="scale(1.0147 .98508) rotate(-45)" clip-path="url(#c)" fill="#483737"/><rect width="74.839" height="272.899" x="502.278" y="-216.175" ry="0" transform="rotate(45)" clip-path="url(#d)" fill="#483737"/><rect ry="0" y="-221.327" x="358.951" height="368.905" width="74.839" transform="scale(1 -1) rotate(-45 -4.233 10.22)" clip-path="url(#e)" fill="#500"/><rect clip-path="url(#f)" transform="matrix(.7175 .69656 .7175 -.69656 -67.74 404.615)" width="104.479" height="508" x="-69.352" y="-79.691" ry="0" fill="#483737"/></g></svg>