<svg xmlns="http://www.w3.org/2000/svg" width="3840" height="2160" viewBox="0 0 1016 571.5"><defs><clipPath clipPathUnits="userSpaceOnUse" id="e"><path transform="scale(1 -1) rotate(-45)" stroke-width=".313" d="M188.015 202.383h223.074v95.239H188.015z"/></clipPath><clipPath clipPathUnits="userSpaceOnUse" id="c"><path transform="scale(1 -1) rotate(-45)" stroke-width=".527" d="M-.366-205.938h309.679v194.714H-.366z"/></clipPath><clipPath clipPathUnits="userSpaceOnUse" id="b"><path transform="rotate(45)" stroke-width=".378" d="M185.815 10.487h441.734v191.896H185.815z"/></clipPath><clipPath clipPathUnits="userSpaceOnUse" id="a"><path transform="rotate(45)" stroke-width=".352" d="M246.451 10.631h261.66v191.751h-261.66z"/></clipPath><clipPath clipPathUnits="userSpaceOnUse" id="d"><path transform="rotate(-45)" stroke-width=".078" d="M411.089 202.383h97.448v95.425h-97.448z"/></clipPath><clipPath clipPathUnits="userSpaceOnUse" id="f"><path transform="scale(1 -1) rotate(-45)" stroke-width=".328" d="M66.879-205.938h242.433v96.656H66.879z"/></clipPath></defs><path d="M-312.584-127.51h1534.19v989.694h-1534.19z"/><g transform="matrix(2.0221 0 0 2.03786 -1.79 2.61)"><rect clip-path="url(#a)" transform="rotate(-45 -19.163 -7.938)" ry="0" y="238.734" x="224.033" height="272.899" width="74.839" fill="#483737"/><rect clip-path="url(#b)" transform="rotate(-45 -19.163 -7.938)" width="74.839" height="348.058" x="149.835" y="160.904" ry="0" fill="#500"/><rect clip-path="url(#c)" transform="matrix(.7175 -.69656 .7175 .69656 0 -15.875)" width="104.479" height="508" x="-69.352" y="-79.691" ry="0" fill="#483737"/><rect clip-path="url(#d)" transform="rotate(45 19.163 -7.938)" ry="0" y="-216.175" x="502.278" height="272.899" width="74.839" fill="#483737"/><rect clip-path="url(#e)" transform="scale(1 -1) rotate(-45 14.93 18.158)" width="74.839" height="368.905" x="358.951" y="-221.327" ry="0" fill="#500"/><rect ry="0" y="-79.691" x="-69.352" height="508" width="104.479" transform="matrix(.7175 .69656 .7175 -.69656 -67.74 388.74)" clip-path="url(#f)" fill="#483737"/></g></svg>