<svg width="1280" height="1024" viewBox="0 0 338.67 270.93" xmlns="http://www.w3.org/2000/svg"><defs><clipPath id="e"><path transform="scale(1 -1) rotate(-45)" d="M188.02 202.38h223.07v95.239H188.02z" stroke-width=".313"/></clipPath><clipPath id="c"><path transform="scale(1 -1) rotate(-45)" d="M-.366-205.94h309.68v194.71H-.366z" stroke-width=".527"/></clipPath><clipPath id="b"><path transform="rotate(45)" d="M185.82 10.487h441.73v191.9H185.82z" stroke-width=".378"/></clipPath><clipPath id="a"><path transform="rotate(45)" d="M246.45 10.631h261.66v191.75H246.45z" stroke-width=".352"/></clipPath><clipPath id="d"><path transform="rotate(-45)" d="M411.09 202.38h97.448v95.425H411.09z" stroke-width=".078"/></clipPath><clipPath id="f"><path transform="scale(1 -1) rotate(-45)" d="M66.879-205.94h242.43v96.656H66.879z" stroke-width=".328"/></clipPath></defs><path d="M-181.19-19.023H484.8v344.71h-665.99z"/><g transform="matrix(.6702 0 0 .95546 -.59 3.41)"><rect transform="rotate(-45 -19.163 -7.938)" x="224.03" y="238.73" width="74.839" height="272.9" ry="0" clip-path="url(#a)" fill="#483737"/><rect transform="rotate(-45 -19.163 -7.938)" x="149.84" y="160.9" width="74.839" height="348.06" ry="0" clip-path="url(#b)" fill="#500"/><rect transform="matrix(.7175 -.69656 .7175 .69656 0 -15.875)" x="-69.352" y="-79.691" width="104.48" height="508" ry="0" clip-path="url(#c)" fill="#483737"/><rect transform="rotate(45 19.163 -7.938)" x="502.28" y="-216.18" width="74.839" height="272.9" ry="0" clip-path="url(#d)" fill="#483737"/><rect transform="scale(1 -1) rotate(-45 14.93 18.158)" x="358.95" y="-221.33" width="74.839" height="368.9" ry="0" clip-path="url(#e)" fill="#500"/><rect transform="matrix(.7175 .69656 .7175 -.69656 -67.74 388.74)" x="-69.352" y="-79.691" width="104.48" height="508" ry="0" clip-path="url(#f)" fill="#483737"/></g><g transform="rotate(90 -91.165 18.405) scale(.574)"><rect x="232.12" y="149.33" width="2.806" height="16.571" ry="1.381"/><rect transform="rotate(-90)" x="-165.9" y="218.36" width="2.806" height="16.571" ry="1.381"/><rect transform="rotate(-45)" x="57.219" y="271.49" width="2.806" height="21.248" ry="1.799"/><rect transform="rotate(-45)" x="57.232" y="270.48" width="2.806" height="21.248" ry="1.799"/></g><text x="61.819" y="10.46" fill="#fff" font-family="'Noto Sans Mono'" font-size="6.332" font-weight="400" letter-spacing="0" stroke-width=".159" word-spacing="0" style="line-height:1.25" transform="translate(-35.87 248.21)"><tspan x="61.819" y="10.46">Micno</tspan></text><g transform="translate(1.411 80.71) scale(.59827)"><g stroke-width=".574"><circle cx="24.391" cy="293.13" r="10.624" fill="#ff724a"/><rect x="23.506" y="284.12" width="1.611" height="9.512" ry=".793"/><rect transform="rotate(-90)" x="-293.63" y="15.605" width="1.611" height="9.512" ry=".793"/></g><rect transform="rotate(-45)" x="-185.09" y="217.79" width="1.611" height="12.743" ry="1.079"/><rect transform="scale(-1 1) rotate(45)" x="194.65" y="217.79" width="1.611" height="12.743" ry="1.079"/></g></svg>